<?xml version="1.0" encoding="UTF-8" standalone="no"?>
<svg
   xmlns:dc="http://purl.org/dc/elements/1.1/"
   xmlns:cc="http://creativecommons.org/ns#"
   xmlns:rdf="http://www.w3.org/1999/02/22-rdf-syntax-ns#"
   xmlns:svg="http://www.w3.org/2000/svg"
   xmlns="http://www.w3.org/2000/svg"
   xmlns:sodipodi="http://sodipodi.sourceforge.net/DTD/sodipodi-0.dtd"
   xmlns:inkscape="http://www.inkscape.org/namespaces/inkscape"
   version="1.1"
   id="svg833"
   width="1086"
   height="1024"
   viewBox="0 0 1086 1024"
   sodipodi:docname="1086px-Budapest_districts_map.svg"
   inkscape:version="1.0.2 (e86c870879, 2021-01-15, custom)">
  <metadata
     id="metadata839">
    <rdf:RDF>
      <cc:Work
         rdf:about="">
        <dc:format>image/svg+xml</dc:format>
        <dc:type
           rdf:resource="http://purl.org/dc/dcmitype/StillImage" />
      </cc:Work>
    </rdf:RDF>
  </metadata>
  <defs
     id="defs837" />
  <sodipodi:namedview
     pagecolor="#ffffff"
     bordercolor="#666666"
     borderopacity="1"
     objecttolerance="10"
     gridtolerance="10"
     guidetolerance="10"
     inkscape:pageopacity="0"
     inkscape:pageshadow="2"
     inkscape:window-width="1280"
     inkscape:window-height="961"
     id="namedview835"
     showgrid="false"
     inkscape:zoom="0.49027912"
     inkscape:cx="716.45088"
     inkscape:cy="470.64935"
     inkscape:window-x="-8"
     inkscape:window-y="-8"
     inkscape:window-maximized="1"
     inkscape:current-layer="g841" />
  <g
     inkscape:groupmode="layer"
     inkscape:label="Image"
     id="g841">
    <path
       style="fill:#000000"
       d="m 554.43143,1009.6753 c -6.7005,-7.6423 -23.1748,-22.8878 -55.905,-51.73496 -25.52272,-22.49481 -46.7988,-40.78262 -47.28017,-40.63958 -1.76816,0.52539 -6.88442,-2.83817 -6.16444,-4.05266 0.39367,-0.66407 5.19794,-7.93067 10.67615,-16.14798 5.4782,-8.21732 10.14712,-15.65469 10.37536,-16.5275 0.31506,-1.20478 -3.03364,-3.11563 -13.9059,-7.93508 -14.3209,-6.34816 -14.3209,-6.34816 -28.27754,-32.72251 -13.79839,-26.07528 -13.99283,-26.37434 -17.14846,-26.37434 -5.01997,0 -14.39328,3.31374 -20.59503,7.28095 -6.1684,3.94588 -19.0579,15.76326 -24.00163,22.00524 -3.39185,4.28255 -3.49695,3.50453 1.60863,11.90787 0.77561,1.27659 0.57074,2.20071 -0.83135,3.75 -1.68932,1.86668 -3.02004,2.05642 -14.45561,2.06114 -12.59501,0.005 -12.59501,0.005 -17.06404,10.5 -2.45797,5.77214 -4.71601,10.4948 -5.01787,10.4948 -0.30186,0 -2.12817,-1.07319 -4.05847,-2.38486 -3.50965,-2.38487 -3.50965,-2.38487 -9.26841,4.5 -3.16731,3.78667 -6.10488,6.88486 -6.52792,6.88486 -0.42304,0 -3.76972,-2.475 -7.43707,-5.5 -3.66734,-3.025 -7.15376,-5.5 -7.74758,-5.5 -0.59382,0 -5.36645,2.475 -10.60585,5.5 -5.23939,3.025 -9.82803,5.47944 -10.19698,5.45431 -0.36895,-0.0251 -2.79806,-4.4251 -5.39803,-9.7777 -6.99861,-14.40821 -5.92198,-13.69646 -14.77279,-9.7662 -10.67786,4.74158 -27.92087,10.08644 -39,12.08893 -36.42466,6.58357 -53.22005,11.04936 -66.20236,17.60281 -6.41812,3.23986 -9.72751,6.06033 -33.57767,28.61701 -16.280027,15.3971 -16.280027,15.3971 -25.999997,14.70771 -5.34598,-0.37917 -9.93416,-0.88202 -10.19594,-1.11744 -0.26179,-0.23543 0.78904,-2.8442 2.33518,-5.79729 2.81116,-5.36923 2.81116,-5.36923 -0.16353,-11.69069 -4.59848,-9.77217 -10.27805,-24.5542 -10.89501,-28.35609 -0.41216,-2.53982 -0.15492,-3.58406 0.99127,-4.02389 1.37118,-0.52617 1.3248,-1.24164 -0.40624,-6.26772 -7.07261,-20.53531 -6.92738,-36.05945 0.41203,-44.04159 2.72975,-2.9688 12.92622,-7.95251 17.95227,-8.77449 3.75,-0.61329 3.75,-0.61329 3.73264,-7.73548 -0.022,-9.01891 -1.73217,-17.04641 -7.90457,-37.10366 -2.71124,-8.81019 -5.36023,-17.64649 -5.88666,-19.63621 -0.94918,-3.58765 -0.85222,-3.75014 11.67573,-19.56766 17.154877,-21.65938 22.810627,-27.87205 31.730287,-34.85477 4.23787,-3.3176 8.41916,-7.53819 9.43122,-9.51987 5.01915,-9.8278 6.68148,-25.73174 4.74667,-45.41242 -1.27532,-12.9724 -1.27532,-12.9724 -12.03739,-20.5 -5.91913,-4.14018 -10.72597,-7.9776 -10.68186,-8.5276 0.19005,-2.36971 21.61385,-18.28398 25.71924,-19.10506 2.67375,-0.53475 3.20341,-1.2584 4.62224,-6.31505 2.9546,-10.53012 1.83593,-19.00708 -4.65705,-35.28976 -2.50593,-6.28421 -5.50384,-11.07272 -12.38985,-19.79013 -10.03847,-12.70829 -18.35065,-24.73363 -18.35065,-26.54812 0,-1.67749 -24.877407,-26.60667 -28.624987,-28.68457 -3.12499,-1.73269 -3.12499,-1.73269 -14.27627,6.25 -6.1332,4.39048 -11.47695,7.96509 -11.87501,7.94359 -0.39805,-0.0215 -3.986233,-4.11434 -7.973733,-9.09517 -4.92558,-6.1526 -7.25,-9.91146 -7.25,-11.7241 0,-2.16588 -1.49822,-3.79482 -7.96027,-8.65483 -4.378146,-3.29274 -7.978146,-6.43181 -7.999996,-6.9757 -0.0218,-0.5439 2.27307,-6.5064 5.099826,-13.25 5.13957,-12.2611 5.13957,-12.2611 11.10841,-12.2611 5.96885,0 5.96885,0 5.17888,-2.75 -0.43448,-1.5125 -0.85428,-6.2966 -0.93288,-10.63134 -0.14292,-7.88135 -0.14292,-7.88135 -12.06844,-14.56525 -11.513946,-6.4532 -11.920346,-6.7947 -11.775456,-9.8928 0.19407,-4.1496 9.198696,-20.0832 11.966716,-21.1749 1.16423,-0.4592 3.71564,-3.7437 5.66979,-7.2988 2.98206,-5.4252 3.46341,-7.132 2.99542,-10.6211 -0.52187,-3.8908 -1.04524,-4.4715 -8.16754,-9.0613 -7.609926,-4.904 -7.609926,-4.904 -10.320396,-2.3072 -2.71048,2.5968 -2.71048,2.5968 -12.7522699,-0.5865 -8.7432902,-2.7717 -10.0413102,-3.4696 -10.0380502,-5.3971 0.004,-2.4958 3.4140202,-8.5424 5.8728402,-10.4142 1.99308,-1.5173 8.05176,-1.6574 11.6993999,-0.2706 2.70617,1.0289 2.70617,1.0289 2.09812,-4.25 -2.13355,-18.5227 -1.70845,-45.0461 0.99501,-62.0822 0.57127,-3.5999 0.47595,-3.7769 -1.78278,-3.3104 -1.31248,0.2711 -4.6363299,0.7446 -7.3863299,1.0523 -5,0.5594 -5,0.5594 -8.25,-4.2102 -1.7875002,-2.6234 -3.2500002,-5.3173 -3.2500002,-5.9865 0,-1.7606 7.6835802,-6.3564 13.4770602,-8.061 3.8159999,-1.1228 7.0236299,-3.3519 13.7499999,-9.5551 12.548456,-11.5724 12.809206,-9.2963 -6.2325,-54.4029 -8.2529899,-19.55 -14.8904899,-35.6487 -14.7499999,-35.7749 0.14049,-0.1263 6.33044,-3.4677 13.7554399,-7.4255 14.484016,-7.7204 21.191996,-12.5593 23.442056,-16.9105 1.41102,-2.7286 1.41102,-2.7286 35.734483,1.4556 34.287567,4.1799 34.333287,4.1886 43.726047,8.3557 5.17143,2.2943 9.70478,3.8127 10.07411,3.3741 0.36934,-0.4386 5.08189,-7.6749 10.47233,-16.0806 8.78252,-13.6954 9.6522,-15.4616 8.37059,-17 -0.78661,-0.9443 -3.54282,-4.128 -6.12491,-7.075 -2.58209,-2.9469 -4.69471,-5.773599 -4.69471,-6.281399 0,-0.5077 1.95357,-3.8353 4.34126,-7.3945 4.34125,-6.4713 4.34125,-6.4713 14.25,0.8071 17.95153,13.186199 15.59384,12.096899 20.75574,9.589099 4.48238,-2.177699 4.48238,-2.177699 12.19666,3.9801 4.24285,3.3868 8.66874,6.1558 9.83531,6.1533 1.16656,0 9.99603,-3.2121 19.62103,-7.1326 9.625,-3.9205 20.875,-8.212499 25,-9.537699 9.76121,-3.136 22.60262,-3.9832 29.99865,-1.9791 3.02426,0.8194 5.65108,1.3375 5.83737,1.1512 0.80105,-0.801 -2.31362,-12.7035 -5.49467,-20.997295 -1.89854,-4.95 -7.34368,-16.5208 -12.10031,-25.713 -4.75662,-9.1921 -8.44425,-16.9042 -8.19472,-17.1379 0.24952,-0.2336 9.18758,-4.7883 19.86236,-10.1214 19.40867,-9.6966 19.40867,-9.6966 33.5,-11.2047004 15.03787,-1.6094 23.71921,-1.3174 37.59132,1.2642004 4.675,0.87 13.69714,1.7374 20.04921,1.9275 8.00096,0.2394 14.51603,1.099 21.20591,2.7977 5.69568,1.4463 9.79078,2.0499 9.98358,1.4715 0.32482,-0.9745 9.7613,-2.484 9.7613,-1.5615 0,0.2654 -2.2021,5.1615 -4.89356,10.8801 -6.76074,14.3648 -10.8732,26.5122 -12.61841,37.2725 -1.70427,10.5078 -1.95516,21.624995 -0.48803,21.624995 0.55,0 1,-0.6754 1,-1.5009 0,-2.25 21.93704,-44.901695 27.43901,-53.349095 6.08245,-9.3385 12.19941,-16.9881 19.91124,-24.9000004 6.09197,-6.25 6.09197,-6.25 18.02585,-6.25 11.70568,0 11.90064,0.037 10.19592,1.92040002 -2.07572,2.29369998 -2.10177,2.27519998 9.24203,6.54829998 5.91175,2.2269 7.17665,3.0692004 6.59765,4.3932004 -1.91062,4.3685 -1.60866,8.2421 0.9431,12.098 3.3024,4.9904 8.4898,8.5204 22.7021,15.4491 6.2937,3.0683 14.3569,7.494 17.9182,9.8349 6.0864,4.0006 6.9567,4.2735 14.5,4.5459 6.9902,0.2524 9.2755,-0.1477 17.7244,-3.1029 8.5068,-2.9755 9.7783,-3.1956 10.341,-1.7898 0.3529,0.8816 1.9342,5.0764 3.514,9.3218 2.7587,7.4137 2.7993,7.7701 1.0279,9.0109 -1.7025,1.1924 -1.0793,2.1376 8.0985,12.280995 8.677,9.5901 10.4312,11.0597 13.7785,11.5428 3.5168,0.5076 14.8634,8.1976 14.9933,10.161499 0.026,0.3933 -5.365,8.0188 -11.9801,16.9455 -12.0273,16.2304 -12.0273,16.2304 -5.7788,22.5349 3.4366,3.4675 6.6079,6.3045 7.0472,6.3045 0.4393,0 2.6317,-1.1571 4.8719,-2.5713 2.2403,-1.4142 4.6132,-2.3641 5.2731,-2.1108 0.8631,0.3312 31.41328,26.5193 43.54768,37.3298 0.2386,0.2125 -5.3784,6.2605 -12.4821,13.4399 -12.7703,12.9063 -12.892,13.0725 -10.7945,14.733 7.8591,6.2215 48.3429,42.6626 48.3429,43.5154 0,0.58 -1.212,2.3196 -2.6934,3.8659 -1.6197,1.6906 -2.3173,3.1472 -1.75,3.6539 0.5189,0.4635 8.8184,6.6076 18.4434,13.6535 9.625,7.0459 17.9781,13.1738 18.5625,13.6176 0.615,0.467 3.231,-0.6534 6.2106,-2.66 2.8314,-1.9068 5.3708,-3.4669 5.643,-3.4669 0.2723,0 3.0647,1.8 6.2053,4 3.1406,2.2 6.0839,4 6.5408,4 0.4568,0 4.04,-2.2901 7.9626,-5.089 8.0606,-5.7517 5.1332,-7.3137 28.0079,14.9446 9.6327,9.3732 9.6327,9.3732 33.5,3.1622 13.127,-3.4161 27.74,-7.2427 32.4732,-8.5037 8.6059,-2.2927 8.6059,-2.2927 26.636,32.3466 18.0301,34.6393 18.0301,34.6393 24.2634,56.1393 3.4283,11.825 6.2921,21.5719 6.364,21.6598 0.072,0.088 9.8057,-1.8628 21.6307,-4.3349 19.6636,-4.1108 23.2083,-4.5564 41.49997,-5.2166 19.8159,-0.7152 20.0966,-0.7567 30.5,-4.5076 28.70202,-10.3482 40.13672,-13.6007 47.81572,-13.6007 2.8182,0 3.0292,0.3684 7.4822,13.0655 4.5821,13.0655 4.5821,13.0655 -2.2598,23.4465 -9.342,14.1744 -10.54,17.9845 -10.53,33.48799 0.01,13.55561 1.0236,17.98518 6.7586,29.5 4.3068,8.64719 8.894,15.32149 20.4629,29.77307 12.1578,15.1873 12.9395,17.26333 14.247,37.84014 0.5028,7.91274 1.4977,16.18679 2.2108,18.38679 0.7132,2.2 3.4393,6.22493 6.0581,8.94428 4.7614,4.94429 4.7614,4.94429 -6.9921,16.20822 -11.3835,10.90945 -12.0808,11.39395 -22.1562,15.39494 -15.3621,6.10033 -30.0148,9.1524 -44.4937,9.26777 -11.89653,0.0948 -11.89653,0.0948 -24.50002,14.99939 -10.6223,12.56162 -14.8981,18.74603 -27.2002,39.34167 -8.02807,13.4404 -15.00307,24.81268 -15.49997,25.27174 -0.4968,0.45905 -6.3033,-0.007 -12.9033,-1.0358 -6.6,-1.02875 -12.4864,-1.69366 -13.081,-1.47758 -0.5945,0.21608 -7.211,8.43585 -14.7032,18.26615 -13.2855,17.43135 -13.7572,17.91913 -19.0783,19.72781 -3.6514,1.24116 -6.2131,2.88593 -7.7454,4.97297 -1.2592,1.71514 -6.4616,8.37945 -11.5609,14.80958 -9.2713,11.69114 -9.2713,11.69114 -21.0513,6.27609 -11.7799,-5.41505 -11.7799,-5.41505 -12.0814,-9.86147 -0.3373,-4.97271 -3.1985,-8.82828 -3.1985,-4.30999 0,5.28937 -0.561,5.62965 -6.8164,4.1342 -3.126,-0.7473 -6.1625,-1.37476 -6.7477,-1.39435 -0.8519,-0.0285 -24.395,27.04456 -32.8995,37.83222 -1.9637,2.49079 -1.9637,2.49079 9.3839,13.18658 11.3476,10.69578 11.3476,10.69578 -0.9388,25.96853 -12.2864,15.27275 -12.2864,15.27275 -14.1246,11.6897 -1.011,-1.97068 -2.229,-3.8246 -2.7067,-4.11983 -0.4777,-0.29522 -5.951,4.73812 -12.1628,11.18521 -11.2943,11.72197 -11.2943,11.72197 -31.0433,54.91163 -18.6835,40.85978 -20.6308,44.62072 -36.0965,69.71754 -16.3476,26.52791 -16.3476,26.52791 -21.3476,26.57871 -11.5877,0.1176 -39.1515,5.3855 -59.10148,11.2951 -7.3521,2.1778 -9.2667,3.3394 -20.7006,12.5594 -16.818,13.5616 -16.1748,13.5774 -28.6979,-0.7058 z m 26.828,-3.6092 c 13.0448,-10.4745 13.0448,-10.4745 30.3584,-14.9798 18.53068,-4.8221 38.28998,-8.5456 45.34788,-8.5456 2.3845,0 5.3773,-0.4054 6.6506,-0.901 1.5581,-0.6063 7.4228,-9.18951 17.9361,-26.24998 11.9962,-19.46676 17.8814,-30.27725 25.3618,-46.58668 5.3574,-11.6807 9.5001,-21.8057 9.206,-22.5 -0.7094,-1.67473 -46.7436,-53.15694 -47.9551,-53.63036 -0.518,-0.2024 -3.7205,2.38609 -7.1168,5.7522 -6.1752,6.12021 -6.1752,6.12021 -12.1207,0.11194 -5.9456,-6.00827 -5.9456,-6.00827 -2.7806,-9.17321 3.1649,-3.16495 3.1649,-3.16495 -5.2753,-12.35978 -4.6422,-5.05715 -8.4403,-9.47454 -8.4403,-9.81641 0,-0.34187 3.1714,-2.2187 7.0476,-4.17072 7.0477,-3.54913 7.0477,-3.54913 -1.4972,-12.76257 -4.6997,-5.06739 -8.5461,-9.48832 -8.5476,-9.82428 0,-0.33596 3.6036,-2.25938 8.0115,-4.27427 8.0143,-3.66344 8.0143,-3.66344 -5.6887,-19.38916 -23.39278,-26.84574 -20.79798,-24.54057 -24.30368,-21.59072 -1.662,1.39853 -3.0219,3.38694 -3.0219,4.4187 0,2.1288 -2.8009,3.94629 -6.0815,3.94629 -1.4132,0 -6.226,3.68422 -13.3158,10.19319 -6.1065,5.60625 -12.0927,11.06352 -13.3026,12.12726 -2.1999,1.93408 -2.1999,1.93408 -20.0846,-16.40472 -17.8848,-18.33879 -17.8848,-18.33879 -29.4443,-8.07078 -11.5596,10.26801 -11.5596,10.26801 -6.0341,19.75532 6.2514,10.7338 6.5455,9.24723 -3.0777,15.55276 -2.8193,1.84729 -5.116,2.763 -5.5,2.19288 -0.3627,-0.53838 -2.8015,-3.73321 -5.4196,-7.09963 -4.7601,-6.12074 -4.7601,-6.12074 -2.7255,-11.28268 2.0347,-5.16193 2.0347,-5.16193 -2.4444,-11.18945 -4.4792,-6.02752 -4.4792,-6.02752 -10.8931,0.13148 -6.414,6.159 -6.414,6.159 -12.49068,-2.71324 -3.40064,-4.96507 -6.59346,-10.92444 -7.25013,-13.53231 -1.29843,-5.15655 -2.8023,-5.79332 -5.88006,-2.48973 -1.89856,2.03785 -2.13466,2.06837 -3.8677,0.5 -1.01514,-0.91869 -2.26028,-1.6879 -2.76697,-1.70935 -0.50669,-0.0214 -2.31707,-1.93907 -4.02307,-4.26138 -2.43968,-3.32104 -2.87559,-4.58101 -2.04204,-5.90246 1.78533,-2.83034 -1.80276,-5.79716 -7.01114,-5.79716 -5.28439,0 -5.25024,-0.28122 -1.89161,15.57592 1.93551,9.13817 3.49098,13.51907 7.36873,20.75368 7.99601,14.91798 12.28768,21.83241 16.21497,26.12446 4.7952,5.24055 11.66153,15.55872 15.73407,23.6439 5.42873,10.7776 7.49133,20.51924 7.49563,35.40204 0.01,21.29729 -4.5924,34.80807 -20.78041,61.05391 -3.71326,6.02035 -7.55532,12.29609 -8.53792,13.94609 -1.78655,3 -1.78655,3 44.76363,44 31.1806,27.46301 49.7072,44.54931 56.1121,51.75001 5.259,5.9125 9.8762,10.75 10.2604,10.75 0.3843,0 6.5688,-4.7136 13.7434,-10.4746 z M 101.72207,906.34999 c 11.63684,-12.56901 16.53954,-16.31074 30.42874,-23.22313 17.66846,-8.79326 51.3156,-18.44557 82.93678,-23.79198 13.15616,-2.2244 13.15616,-2.2244 14.36263,-6.2593 3.36763,-11.26269 14.16216,-26.30078 25.07074,-34.92661 7.12308,-5.63249 22.40345,-14.50478 23.28889,-13.5223 0.20522,0.22771 0.68435,1.42652 1.06474,2.66402 0.56521,1.83876 0.30767,2.25 -1.40902,2.25 -2.24577,0 -11.52457,4.36648 -12.44559,5.85673 -0.30415,0.49212 3.05518,-0.0618 7.46518,-1.23099 6.99862,-1.85544 8.135,-1.93683 8.93687,-0.64011 1.21367,1.96264 0.18103,2.45294 -9.22301,4.37909 -13.85421,2.83764 -22.21289,8.51928 -30.19299,20.52307 -3.70435,5.57213 -8.5746,15.65822 -8.5746,17.75764 0,0.78932 3.88687,-0.19566 15,-3.80119 11.21808,-3.63958 21.62168,-8.69872 24.71218,-12.01724 4.23462,-4.54704 25.42742,-53.20651 28.88759,-66.327 1.76054,-6.6757 3.54062,-29.4155 2.80662,-35.85329 -0.52158,-4.57467 1.51586,-17.49902 4.16634,-26.42892 0.6384,-2.15089 0.4332,-2.26597 -3.5663,-2 -4.24367,0.28221 -4.24367,0.28221 -12.58832,-15.71779 -7.80872,-14.97242 -8.52929,-16.00228 -11.21974,-16.03558 -3.34857,-0.0414 -18.46147,-10.68664 -20.07182,-14.13816 -0.5578,-1.19556 -4.36238,-5.92056 -8.45463,-10.5 -6.09168,-6.8169 -8.48543,-8.74342 -13.20495,-10.6275 -3.17047,-1.26568 -6.10559,-1.94068 -6.52248,-1.5 -0.41689,0.44068 -1.70153,4.00506 -2.85475,7.92085 -1.15322,3.91578 -3.10768,8.39757 -4.34325,9.95953 -1.23557,1.56196 -5.86413,12.30814 -10.28568,23.8804 -8.03919,21.04046 -8.03919,21.04046 -15.17818,21.68183 -6.95246,0.62461 -7.32271,0.79949 -14.17061,6.6933 -3.86739,3.32857 -7.9175,6.52604 -9.00024,7.10551 -1.22156,0.65375 -10.05985,1.01387 -23.2902,0.94896 -19.14227,-0.0939 -21.66729,-0.30255 -24.70387,-2.0412 -3.38228,-1.93659 -3.38228,-1.93659 -7.25602,0.74791 -5.88037,4.0751 -16.03197,15.20593 -29.866507,32.74743 -8.30625,10.53192 -12.38608,16.50738 -12.16975,17.82423 0.17899,1.08952 2.77767,9.93505 5.77484,19.65672 6.07426,19.70254 8.39973,31.1197 8.39973,41.23937 0,7.50979 0.65948,6.82351 -8.55416,8.90184 -8.32451,1.87778 -14.87589,6.22575 -17.47707,11.59906 -1.9683,4.06598 -2.17815,5.67125 -1.67229,12.79246 0.35131,4.94545 1.94924,12.65883 4.06933,19.64304 3.23796,10.66686 3.37337,11.62987 1.86899,13.2926 -1.50951,1.6684 -1.2515,2.70766 3.72399,15 2.94023,7.26407 5.7566,13.73879 6.2586,14.38826 0.65082,0.842 1.96543,-0.0189 4.58116,-3 2.01764,-2.29947 8.53908,-9.44167 14.492087,-15.87156 z m 183.51294,-29.17476 c 3.46696,-1.999 6.44455,-3.63454 6.61686,-3.63454 0.1723,0 3.4107,2.47954 7.19642,5.51008 6.88314,5.51008 6.88314,5.51008 12.09416,-0.25 2.86605,-3.16804 5.22855,-6.09758 5.25,-6.51008 0.0697,-1.34043 3.75992,-0.79118 5.03898,0.75 2.3183,2.79338 3.58127,1.52109 7.44507,-7.5 3.85475,-9 3.85475,-9 16.70484,-9 8.06698,0 12.85009,-0.37962 12.85009,-1.01987 0,-0.56093 -1.15228,-2.8452 -2.56061,-5.07615 -2.56061,-4.05627 -2.56061,-4.05627 -0.11091,-7.268 5.27417,-6.91478 19.87494,-20.62736 27.13082,-25.48039 8.85428,-5.9221 15.44019,-8.15559 24.04848,-8.15559 6.14479,0 6.14479,0 19.99104,26.25 7.61544,14.4375 13.90217,26.34606 13.97051,26.46347 0.0684,0.1174 6.47901,3.11288 14.24592,6.65661 14.12165,6.44315 14.12165,6.44315 17.57476,-0.71347 4.07707,-8.44977 6.17859,-16.61666 5.25561,-20.42427 -0.36428,-1.50279 -3.28848,-9.93234 -6.49823,-18.73234 -3.20974,-8.8 -8.13827,-23.53548 -10.95227,-32.74552 -5.82269,-19.05723 -8.03602,-24.42895 -15.13057,-36.72168 -2.77636,-4.81059 -5.88452,-10.94844 -6.90704,-13.63966 -1.40253,-3.69142 -12.52692,-50.75163 -16.81727,-71.14314 -0.46688,-2.21903 -0.69205,-2.25 -16.35682,-2.25 -8.73588,0 -15.88342,-0.1882 -15.88342,-0.41821 0,-0.23002 0.27314,-1.13002 0.60699,-2 0.51494,-1.34191 2.80933,-1.58179 15.12917,-1.58179 14.52217,0 14.52217,0 13.82078,-6.25 -1.16607,-10.39059 -6.78325,-33.67347 -9.91675,-41.10434 -4.76294,-11.29496 -18.82356,-27.23095 -26.16378,-29.65344 -6.44534,-2.12716 -10.15421,-0.60495 -18.03053,7.40018 -5.67724,5.77007 -8.13745,9.32929 -12.27322,17.75582 -2.84497,5.79652 -5.17266,10.74534 -5.17266,10.99738 0,0.25203 2.5875,0.0316 5.75,-0.48981 3.1625,-0.52143 8.7875,-0.62147 12.5,-0.22233 6.27425,0.67458 6.75,0.89632 6.75,3.14613 0,2.40734 -0.0569,2.42041 -10.53212,2.42041 -12.84994,0 -16.55246,1.2853 -19.31793,6.70608 -1.71505,3.36177 -4.23691,13.64053 -4.10406,16.72758 0.0252,0.58649 1.32909,-1.70563 2.89744,-5.09359 1.56835,-3.38796 3.76812,-6.65046 4.88837,-7.25 1.15744,-0.61944 7.41578,-1.09007 14.49557,-1.09007 12.67089,0 13.67273,0.29908 13.67273,4.08179 0,0.50501 -4.1625,0.94361 -9.25,0.97465 -10.91379,0.0666 -16.25,1.52578 -16.25,4.44356 0,1.75143 0.93214,2.09898 7.5,2.79641 14.67391,1.55818 16.1664,1.86999 18.07208,3.77567 1.06036,1.06036 1.92792,2.33971 1.92792,2.843 0,0.53847 -6.38908,0.68189 -15.52425,0.34847 -15.37403,-0.56113 -15.54915,-0.54337 -18.09732,1.83492 -2.06848,1.93058 -6.37843,8.77626 -6.37843,10.13112 0,0.1701 3.44122,0.1355 7.64716,-0.0769 7.62798,-0.38519 7.64557,-0.38023 7.01365,1.98057 -0.34842,1.3017 -0.6387,2.81673 -0.64506,3.36673 -0.007,0.59486 -2.57031,0.86749 -6.32724,0.67293 -4.54977,-0.23563 -6.6445,0.0691 -7.49166,1.08989 -0.64679,0.77933 -2.07161,5.8846 -3.16626,11.34504 -1.09465,5.46045 -3.13948,13.21738 -4.54408,17.23763 -4.44723,12.72897 -6.43704,23.18848 -7.54383,39.65451 -0.59151,8.8 -1.97323,20.48132 -3.0705,25.95848 -7.64552,38.16383 -27.87791,73.54675 -49.78792,87.07037 -5.76873,3.56067 -6.03692,3.89446 -4.73072,5.88796 0.76158,1.16232 3.037,5.39436 5.05649,9.40452 3.67179,7.29122 3.67179,7.29122 6.88088,5.36949 1.765,-1.05695 6.0457,-3.55728 9.51267,-5.55628 z m 442.6099,-13.97229 c 8.8686,-19.50105 8.8686,-19.50105 22.543,-33.79616 13.6743,-14.2951 13.6743,-14.2951 16.1385,-10.16292 2.4641,4.13219 2.4641,4.13219 11.1298,-6.69674 8.6658,-10.82892 8.6658,-10.82892 -2.8276,-21.66768 -11.4934,-10.83875 -11.4934,-10.83875 7.6043,-33.33875 20.644,-24.32179 19.4559,-23.4106 28.1421,-21.58368 3.6436,0.76634 3.6436,0.76634 4.3438,-4.32499 0.3852,-2.80023 0.9531,-5.09133 1.2621,-5.09133 0.3089,0 2.0672,1.14826 3.9072,2.55169 3.8513,2.93757 6.3433,7.22241 6.3433,10.90703 0,2.23878 1.0789,3.0565 8.6448,6.55194 5.6825,2.62533 9.0235,3.66871 9.75,3.04488 0.6079,-0.52197 5.6052,-6.76425 11.1052,-13.87173 9.4373,-12.19558 10.2958,-13.01746 15.2577,-14.60678 5.1006,-1.63375 5.6491,-2.19792 18.3548,-18.87634 13.0971,-17.19227 13.0971,-17.19227 7.5863,-18.19648 -3.4288,-0.62482 -6.2075,-1.80454 -7.3548,-3.1226 -1.9745,-2.2683 -22.5092,-10.5549 -30.9452,-12.48768 -5.1012,-1.16874 -5.1012,-1.16874 -10.986,-13.07038 -3.2367,-6.54591 -7.0762,-13.04297 -8.5322,-14.43791 -1.8039,-1.72826 -5.5597,-3.27732 -11.7892,-4.86239 -9.142,-2.32613 -9.142,-2.32613 -10.5934,0.48057 -2.3454,4.53556 -4.3886,5.99618 -8.3879,5.99618 -9.0613,0 -12.5672,-2.08349 -36.9828,-21.97838 -12.8549,-10.4748 -24.424,-19.30896 -25.7089,-19.63147 -1.285,-0.32251 -2.8599,-1.21723 -3.4998,-1.98826 -1.8728,-2.25656 -3.3944,-1.69372 -9.7276,3.59811 -3.2911,2.75 -6.402,5 -6.9131,5 -0.5111,0 -2.0202,-1.18599 -3.3536,-2.63553 -5.3714,-5.83946 -9.9642,-8.36447 -15.2141,-8.36447 -3.598,0 -5.3466,0.48812 -6.2694,1.75 -1.2074,1.65123 -1.4111,1.63251 -3.6102,-0.33184 -1.2818,-1.14501 -8.1806,-7.19226 -15.3306,-13.43833 -7.15,-6.24607 -13.9895,-12.22855 -15.1988,-13.29439 -2.1988,-1.93789 -2.1988,-1.93789 -2.8543,3.00361 -0.6555,4.94151 -0.6555,4.94151 -12.0512,7.33284 -6.2676,1.31524 -11.3957,2.67051 -11.3957,3.01171 0,0.34121 4.5433,3.9131 10.0962,7.93754 9.698,7.0286 10.0719,7.43842 9.4812,10.39176 -0.3382,1.69103 -1.0224,3.48207 -1.5204,3.98008 -0.5406,0.54064 -5.7301,-1.36066 -12.8794,-4.71875 -6.5857,-3.09333 -12.2925,-5.62423 -12.6819,-5.62423 -0.3893,0 -1.6655,1.2375 -2.836,2.75 -1.1705,1.5125 -3.9987,4.775 -6.2848,7.25 -4.1566,4.5 -4.1566,4.5 -3.6356,11.69113 0.521,7.19114 0.521,7.19114 -8.60908,20.2309 -5.0216,7.17187 -9.1302,13.44163 -9.1302,13.93279 0,0.49117 3.6,3.2565 8,6.14518 4.4,2.88868 8,5.41981 8,5.62473 0,0.20492 -2.0914,3.06566 -4.6475,6.35719 -4.6474,5.98461 -4.6474,5.98461 -0.25,9.98627 2.4186,2.20091 10.69748,7.89646 18.39748,12.65678 7.7,4.76032 14.5859,9.1941 15.3021,9.85284 1.0397,0.95647 -2.2416,3.85712 -16.2907,14.40067 -17.59258,13.20295 -17.59258,13.20295 -15.30198,16.05519 1.2598,1.56873 9.37808,10.96317 18.04058,20.87652 8.6625,9.91335 15.75,18.28087 15.75,18.59447 0,0.31361 -3.2625,2.20361 -7.25,4.19999 -3.9875,1.99639 -7.4493,3.81382 -7.6928,4.03873 -0.2436,0.22491 2.0129,2.98465 5.0143,6.13277 13.6249,14.29073 13.1743,12.62379 4.5639,16.88432 -7.6405,3.78061 -7.6405,3.78061 -1.8679,9.81007 12.5542,13.11285 11.9974,12.12168 8.7279,15.53425 -2.8788,3.00478 -2.8788,3.00478 -0.8869,5.67267 4.0675,5.44797 4.7988,5.3522 11.752,-1.53919 6.3898,-6.33301 6.3898,-6.33301 31.2647,21.62821 13.6811,15.37866 25.1099,27.83423 25.3972,27.67902 0.2873,-0.1552 4.5133,-9.05767 9.3911,-19.78325 z M 479.46503,814.18322 c -1.1299,-4.47839 -3.1749,-10.43774 -4.5444,-13.243 -2.49593,-5.11265 -12.53865,-19.68341 -13.14715,-19.07491 -0.96861,0.9686 10.00586,34.31891 16.01743,48.67538 3.14052,7.5 3.14052,7.5 3.43452,-0.35747 0.2042,-5.45758 -0.3335,-10.34443 -1.7604,-16 z m 33.872,-41.31422 c 1.9769,-1.46943 3.7512,-2.78869 3.9428,-2.93169 0.1916,-0.14299 -1.9647,-4.18984 -4.7917,-8.993 -2.8269,-4.80315 -5.0087,-9.26379 -4.8483,-9.91254 0.3071,-1.24205 23.4495,-22.27488 25.4612,-23.14023 0.6432,-0.27671 9.1932,7.62951 19,17.56938 17.8304,18.07248 17.8304,18.07248 30.3304,6.5818 9.6465,-8.86754 13.1327,-11.49197 15.2714,-11.49635 2.0652,-0.004 3.075,-0.70647 3.9624,-2.75568 0.655,-1.5125 2.4516,-3.875 3.9925,-5.25 2.8015,-2.5 2.8015,-2.5 -8.6589,-16.15307 -10.3168,-12.29065 -11.8494,-13.71877 -15.3581,-14.31156 -3.0842,-0.52109 -4.2182,-1.32387 -5.4341,-3.84694 -2.4319,-5.04637 -9.4199,-12.34347 -16.6341,-17.36992 -3.6526,-2.54488 -20.2465,-18.16024 -36.8753,-34.7008 -30.2341,-30.07374 -30.2341,-30.07374 -35,-25.53877 -25.64549,24.40314 -38.18292,35.92106 -39.10058,35.92106 -0.60217,0 -1.58326,-0.9126 -2.18021,-2.02801 -1.80082,-3.36487 -3.25498,-1.13342 -2.7418,4.20739 0.45853,4.77196 0.3495,5.01885 -3.63525,8.23176 -2.34181,1.88819 -5.77348,3.56829 -7.98186,3.90779 -2.13065,0.32755 -4.03931,0.76094 -4.24147,0.9631 -0.20216,0.20216 1.34147,8.88391 3.43028,19.29277 3.79784,18.9252 3.79784,18.9252 8.36291,18.93742 2.51079,0.007 5.63542,0.58736 6.94363,1.29031 3.26302,1.75335 7.02973,7.64629 5.72281,8.95321 -2.38799,2.38799 4.74795,8.02728 8.0341,6.34908 0.8919,-0.45548 2.78795,-1.10611 4.21343,-1.44583 2.45727,-0.58562 2.68113,-0.29636 4.31291,5.57283 1.37815,4.95694 6.34172,13.62446 11.2878,19.711 0.1979,0.24355 3.0793,-2.23145 6.4032,-5.5 6.0434,-5.94282 6.0434,-5.94282 9.4751,-1.94282 1.8874,2.2 4.6253,5.69901 6.0842,7.77558 2.6525,3.77558 2.6525,3.77558 0.8504,9.07724 -1.8021,5.30167 -1.8021,5.30167 2.0597,10.47443 2.124,2.84501 4.0608,5.17275 4.304,5.17275 0.2432,0 2.0596,-1.20226 4.0365,-2.67169 z m 114.09438,-56.81837 c 7.975,-5.93725 14.8288,-11.08219 15.2308,-11.43322 0.4019,-0.35102 -5.3939,-4.41069 -12.8796,-9.02149 -7.4857,-4.61079 -16.13738,-10.73538 -19.22588,-13.6102 -5.6156,-5.22695 -5.6156,-5.22695 -0.948,-11.23748 4.6676,-6.01054 4.6676,-6.01054 -3.7884,-11.6379 -5.8979,-3.92497 -8.2189,-6.01676 -7.6724,-6.91456 0.4309,-0.70797 4.9812,-7.22939 10.1118,-14.49205 9.3283,-13.20484 9.3283,-13.20484 9,-20.7706 -0.3283,-7.56576 -0.3283,-7.56576 3.70528,-11.77078 2.2184,-2.31276 5.033,-5.60863 6.2546,-7.32416 2.221,-3.11914 2.221,-3.11914 -4.5548,-5.70832 -3.7267,-1.42405 -8.24318,-2.58918 -10.03668,-2.58918 -1.7935,0 -4.8764,-0.675 -6.8509,-1.5 -1.9745,-0.825 -4.5123,-1.5 -5.6395,-1.5 -1.1271,0 -4.8613,-1.12497 -8.2982,-2.49992 -3.5712,-1.42872 -10.0323,-2.90238 -15.0785,-3.43914 -5.7467,-0.61128 -12.9017,-2.35705 -20.4926,-5.00007 -12.2967,-4.2815 -19.5318,-5.10903 -25.7416,-2.94427 -2.9001,1.01098 -3.1405,1.40171 -2.541,4.13092 0.6257,2.84914 -0.2614,3.93892 -16.1875,19.8858 -16.8496,16.87147 -16.8496,16.87147 13.1417,46.9483 16.4953,16.54225 32.6762,31.92402 35.9576,34.1817 7.2489,4.98735 13.7082,11.49532 16.7095,16.83543 1.7782,3.16391 3.0798,4.18858 6.3742,5.01814 3.6655,0.92298 5.4464,2.62295 15.545,14.83836 6.4187,7.76431 11.8423,13.47979 12.4051,13.07281 0.55,-0.39772 7.52498,-5.58088 15.49998,-11.51812 z m -450.82631,-0.6336 c 1.64032,-1.16802 5.68601,-4.48156 8.99041,-7.36343 5.6142,-4.89632 6.44017,-5.28013 12.60107,-5.85544 3.62617,-0.33862 6.90921,-0.96257 7.29564,-1.38657 0.38642,-0.42399 4.20436,-9.9959 8.48432,-21.2709 4.27995,-11.275 8.16766,-20.65316 8.63935,-20.84035 1.37223,-0.54457 3.7407,-5.69934 5.94673,-12.94256 2.96659,-9.74042 3.0679,-9.79052 12.05907,-5.96333 6.89986,2.937 8.39719,4.12129 15.71805,12.43204 4.45043,5.05219 8.09169,9.64698 8.09169,10.21064 0,0.56366 3.485,3.60211 7.74444,6.75212 6.11392,4.52145 8.42541,5.68143 10.97877,5.50947 3.21158,-0.21629 3.28663,-0.11388 10.67069,14.56207 9.40686,18.69629 9.18301,18.40921 13.76458,17.65231 3.59384,-0.59371 3.73336,-0.79228 7.8963,-11.2384 5.66019,-14.2032 6.86735,-19.75068 6.9096,-31.75302 0.0401,-11.39545 2.10804,-24.91834 4.95716,-32.41661 1.05024,-2.76401 3.91362,-8.27422 6.36307,-12.24492 7.53057,-12.20749 14.28627,-32.51482 15.40463,-46.3056 0.57465,-7.08613 0.57465,-7.08613 5.94271,-5.10868 2.95243,1.08759 5.36805,2.30767 5.36805,2.71129 0,0.40361 -1.56364,4.16502 -3.47475,8.35869 -1.91112,4.19366 -3.2687,7.62484 -3.01685,7.62484 0.77765,0 5.65517,-10.16233 7.62374,-15.88407 2.38394,-6.92905 2.34768,-11.06281 -0.2159,-24.61593 -2.63188,-13.91415 -5.63212,-19.61741 -15.85922,-30.14729 -4.35216,-4.481 -10.69251,-11.906 -14.08966,-16.5 -3.39716,-4.59399 -6.31602,-8.50167 -6.48636,-8.68373 -0.17034,-0.18206 -1.28356,0.19017 -2.47383,0.82718 -1.70328,0.91157 -2.99286,0.82661 -6.05593,-0.39899 -4.50601,-1.80295 -5.79195,-1.47723 -12.08522,3.06109 -2.54868,1.83796 -4.9995,3.34174 -5.44625,3.34174 -0.44675,0 -2.43425,-1.12404 -4.41668,-2.49786 -3.52636,-2.44377 -3.69389,-2.46271 -7.73652,-0.87472 -5.23177,2.0551 -8.27272,1.29679 -12.5784,-3.13664 -3.81218,-3.92527 -5.15514,-4.13521 -12.5,-1.95402 -6.91961,2.0549 -8.86943,5.45497 -7.17609,12.5136 1.66656,6.947 -0.57899,9.30448 -4.60709,4.83674 -1.66924,-1.85142 -2.71691,-2.05525 -8.46573,-1.64706 -3.88382,0.27577 -7.66042,1.18638 -9.2559,2.23177 -2.26788,1.48598 -3.15418,1.57581 -5.59048,0.56666 -1.59243,-0.6596 -3.88062,-2.24807 -5.08486,-3.52993 -2.05555,-2.18803 -2.39618,-2.2443 -5.56666,-0.91959 -1.85742,0.77608 -4.23345,1.41105 -5.28008,1.41105 -1.58373,0 -2.01682,1.00648 -2.58177,6 -0.37335,3.3 -1.03603,6 -1.47262,6 -0.43658,0 -3.40968,-0.9 -6.60689,-2 -6.43228,-2.21303 -13.66981,-2.44985 -20.4617,-0.66952 -4.09418,1.07318 -4.52877,1.49488 -5.2759,5.1194 -1.03789,5.03501 -3.0099,7.17081 -9.00032,9.74782 -2.647,1.1387 -5.22846,2.79756 -5.73658,3.68634 -0.76606,1.33994 -2.47813,0.0787 -10.02339,-7.38404 -9.09952,-9 -9.09952,-9 -12.02391,-5.5 -1.60842,1.925 -2.9365,3.88925 -2.9513,4.36501 -0.0148,0.47576 -1.16461,0.11955 -2.55515,-0.79156 -2.87376,-1.88297 -2.96833,-1.84311 -10.57805,4.45844 -6.51715,5.39679 -7.31693,3.02607 7.27397,21.56156 8.42372,10.70104 12.25489,18.26259 16.34521,32.2604 3.66013,12.52565 0.70249,34.14615 -4.67112,34.14615 -1.06759,0 -3.38123,0.73232 -5.14142,1.62739 -3.02545,1.53845 -16.22872,11.8005 -17.19569,13.36509 -0.24774,0.40084 3.75042,3.68611 8.88479,7.3006 10.86166,7.64638 10.10541,5.54618 11.23878,31.21142 0.8841,20.02051 -1.69415,34.85511 -7.19376,41.39102 -2.51622,2.99036 -2.51622,2.99036 -0.22534,4.29742 1.5022,0.85708 7.97132,1.49555 18.79088,1.85457 9.075,0.30113 18.23053,0.63863 20.34563,0.75 2.57005,0.13532 4.83488,-0.50192 6.82804,-1.92117 z M 945.46081,661.5609 c 12.42867,-20.95155 15.98007,-26.05569 28.12257,-40.41837 13.8975,-16.43859 13.8975,-16.43859 23.32869,-15.87592 10.63753,0.63464 20.65333,-0.68095 33.51783,-4.40261 17.057,-4.93451 20.7058,-6.89713 31.6925,-17.04641 10.1909,-9.41426 10.1909,-9.41426 6.7591,-13.91018 -4.5964,-6.0216 -6.1184,-12.11721 -7.3325,-29.36672 -0.5613,-7.975 -1.4858,-16.075 -2.0544,-18 -0.5686,-1.925 -5.3318,-8.83628 -10.5849,-15.35841 -11.5906,-14.39076 -16.4139,-21.39985 -20.8764,-30.33711 -7.2352,-14.49038 -9.6165,-27.61226 -7.5951,-41.85211 1.3438,-9.46666 4.6489,-17.10396 12.3071,-28.43896 4.3826,-6.4866 4.3826,-6.4866 0.9458,-16.75 -3.2118,-9.5914 -3.6111,-10.2629 -6.0983,-10.2564 -4.8797,0.013 -18.5968,3.8077 -33.70903,9.3257 -21.75779,7.9444 -22.04979,8.0029 -40.95239,8.2002 -16.20207,0.1691 -18.16207,0.4173 -41.75867,5.2876 -13.6172,2.8105 -25.364,4.8778 -26.104,4.5938 -0.74,-0.284 -5.6828,-0.072 -10.9841,0.4698 -9.6386,0.9861 -9.6386,0.9861 -15.3412,7.1456 -3.1365,3.3878 -12.5798,11.4776 -20.9851,17.9775 -13.5085,10.4461 -17.9548,13.18683 -38.3047,23.61103 -22.6588,11.60698 -23.0222,11.84282 -23.0222,14.94207 0,2.37564 -8.8408,17.70936 -36,62.43969 -19.8,32.60991 -36,59.45033 -36,59.64537 0,0.19505 1.8594,0.35463 4.132,0.35463 4.4868,0 9.3696,2.44664 14.5573,7.29434 3.1892,2.98026 3.1892,2.98026 9.3374,-2.15704 3.3815,-2.82552 6.7141,-5.1373 7.4058,-5.1373 0.6916,0 2.0354,0.85953 2.9861,1.91006 0.9507,1.05054 2.8598,2.19399 4.2424,2.541 1.3827,0.34702 13.162,9.29319 26.1764,19.88038 23.9305,19.46734 27.4936,21.66856 35.0751,21.66856 2.5151,0 3.5369,-0.64331 4.884,-3.07487 3.6155,-6.52613 2.6903,-6.31761 14.7356,-3.32113 13.2534,3.29703 14.6258,4.55249 22.5921,20.66792 5.1295,10.37677 5.4725,10.8085 9.3503,11.7692 8.4787,2.10055 30.6752,11.19946 33.0055,13.52984 2.2737,2.27363 5.2725,2.9512 12.02,2.71584 1.1,-0.0384 7.175,0.73617 13.5,1.72119 6.325,0.98503 11.7935,1.83619 12.1521,1.89148 0.3587,0.0553 7.0535,-10.69037 14.8773,-23.87926 z m -507.78823,3.42828 c 2.94007,-2.47575 3.22716,-3.19498 2.93492,-7.35258 -0.27586,-3.92467 0.0706,-4.97837 2.33495,-7.10215 2.65888,-2.49376 2.65888,-2.49376 4.45546,-0.27928 1.79658,2.21448 1.79658,2.21448 28.16505,-22.64174 14.50267,-13.67093 31.68407,-30.22733 38.18077,-36.79201 10.2287,-10.33554 11.7294,-12.2663 11.1936,-14.40107 -0.5157,-2.05487 -8.7252,-6.81206 -49.31231,-28.57507 -26.78147,-14.36038 -59.49359,-31.53309 -72.69359,-38.16158 -13.2,-6.62849 -29.20087,-15.14252 -35.55749,-18.92007 -11.55749,-6.86826 -11.55749,-6.86826 -16,-3.44203 -2.44338,1.88443 -5.29698,4.0314 -6.34134,4.77105 -2.41541,1.71069 -2.27872,1.9225 11.90576,18.44804 12.30152,14.33181 15.74343,20.75997 17.97853,33.57697 2.50983,14.39245 1.53764,28.52339 -2.63233,38.26132 -1.85774,4.33829 -1.85774,4.33829 2.23754,3.64639 2.25241,-0.38054 6.63153,-0.37501 9.73139,0.0123 5.28657,0.66052 6.04274,1.11815 12.19322,7.37941 7.43136,7.56521 17.93137,22.68582 20.30349,29.23817 0.87321,2.412 3.49548,13.77056 5.82728,25.24125 4.23962,20.85581 4.23962,20.85581 8.03793,20.34635 2.08907,-0.2802 5.2648,-1.74435 7.05717,-3.25366 z m 219.75883,-62.46627 c 0,-0.55978 -4.6125,-4.42807 -10.25,-8.5962 -7.9535,-5.88047 -10.1892,-8.04714 -9.9784,-9.67045 0.1493,-1.15061 0.4055,-2.22596 0.5692,-2.38967 0.1637,-0.1637 5.2165,-1.34799 11.2284,-2.63176 10.9308,-2.33412 10.9308,-2.33412 11.7647,-6.26413 2.2295,-10.50771 1.1745,-10.26724 10.1661,-2.31728 4.4,3.89028 12.5652,11.0728 18.1449,15.96115 10.1449,8.88792 10.1449,8.88792 47,-51.84298 26.2794,-43.30388 36.8551,-61.57205 36.8551,-63.66219 0,-2.86484 -0.2493,-3.00579 -11,-6.2184 -6.05,-1.80791 -12.8514,-3.47594 -15.1143,-3.70674 -2.2628,-0.23079 -5.1878,-1.0834 -6.5,-1.89468 -1.3121,-0.81129 -23.3459,-7.46724 -48.9639,-14.791 -46.5783,-13.31588 -46.5783,-13.31588 -53.5,-21.46578 -6.8517,-8.0674 -6.9572,-8.1413 -10.4218,-7.3011 -3.6578,0.8872 -87.25828,14.1363 -125.85028,19.94493 -22.3503,3.36406 -22.3503,3.36406 -21.6712,9.36406 0.3736,3.3 0.6287,13.7167 0.567,23.14822 -0.1121,17.14822 -0.1121,17.14822 -13.11905,40.98659 -7.15381,13.1111 -12.65132,23.972 -12.21669,24.13534 0.43463,0.16334 16.52127,8.76983 35.74804,19.12555 34.7046,18.69214 34.9815,18.8187 38.2179,17.46643 6.141,-2.56587 14.7692,-1.71205 27.3243,2.70395 7.4871,2.63341 14.559,4.37221 20.2664,4.98293 4.8215,0.51593 11.3465,1.8718 14.5,3.01304 3.1535,1.14125 7.5336,2.41123 9.7336,2.82218 2.2,0.41095 4.9829,1.28011 6.1843,1.93147 1.2013,0.65137 3.9394,1.1843 6.0846,1.1843 4.1439,0 16.30688,4.62934 32.23108,12.26745 9.9321,4.76396 12,5.40412 12,3.71477 z M 477.72236,469.50573 c 0.37656,-9.52951 0.18761,-18.15166 -0.49229,-22.46504 -0.60686,-3.85 -1.15055,-7.07823 -1.20819,-7.17384 -0.0576,-0.0956 -3.14779,0.39799 -6.867,1.09691 -6.63625,1.24709 -6.77251,1.22964 -7.31629,-0.93695 -0.49916,-1.98881 -1.86059,-2.42164 -13.73063,-4.36528 -7.26549,-1.18967 -17.58218,-2.14933 -22.99734,-2.13923 -9.8208,0.018 -9.8208,0.018 -16,4.40613 -4.33482,3.07808 -13.568,7.33143 -30.93393,14.25 -24.75474,9.86226 -24.75474,9.86226 -24.07916,12.86226 0.37157,1.65 1.16649,5.89485 1.76648,9.433 1.09091,6.433 1.09091,6.433 10.07916,11.94929 4.94354,3.03395 26.31326,14.33701 47.48826,25.11789 38.5,19.60161 38.5,19.60161 51.08991,-3.48424 12.58992,-23.08586 12.58992,-23.08586 13.20102,-38.5509 z m -354.98991,52.78496 c 6.09258,-4.9872 7.52746,-5.52152 9.50825,-3.54073 0.94569,0.94569 1.50897,0.78222 2.58429,-0.75 5.12356,-7.30061 4.18175,-7.45761 13.89632,2.31659 8.78988,8.84384 8.78988,8.84384 14.46415,6.10136 6.6401,-3.20927 8.24597,-5.06582 8.24597,-9.53317 0,-4.26847 1.84726,-5.20446 13.06619,-6.62055 7.76676,-0.98035 9.5282,-0.90557 13.67448,0.58055 6.57618,2.35704 7.25716,2.21153 7.27298,-1.55405 0.0256,-6.09826 0.88231,-7.52118 4.82779,-8.01879 2.01221,-0.25378 5.08492,-1.05714 6.82825,-1.78524 3.03852,-1.26904 3.33934,-1.17053 7.2699,2.38049 3.88902,3.5135 4.24086,3.63245 6.83032,2.30936 1.50155,-0.76722 4.23707,-1.71966 6.07893,-2.11655 2.43337,-0.52433 3.04845,-1.02198 2.25,-1.82043 -0.60436,-0.60436 -1.09884,-1.90884 -1.09884,-2.89884 0,-3.18719 3.87518,-1.9969 8.94849,2.74859 4.8628,4.54858 4.8628,4.54858 4.05136,0.95075 -1.89979,-8.42344 2.33027,-13.4702 13.06611,-15.58877 5.56597,-1.09837 5.56597,-1.09837 0.50874,-13.5937 -5.05722,-12.49533 -5.05722,-12.49533 -8.57127,-11.93341 -3.51404,0.56192 -3.51404,0.56192 -1.93796,-20.66077 0.86685,-11.67248 1.3945,-21.75678 1.17255,-22.40958 -0.22194,-0.6527 -0.99227,-0.9609 -1.71183,-0.6848 -0.75207,0.2886 -2.67186,-1.3967 -4.51553,-3.9639 -3.18444,-4.4343 -3.29522,-4.4881 -15.5827,-7.5652 -6.80651,-1.7046 -14.07478,-3.1183 -16.15171,-3.1416 -3.47096,-0.039 -5.06143,-1.2516 -19.67295,-15 -15.8967,-14.9576 -15.8967,-14.9576 -23.00473,-14.9576 -4.54641,0 -15.75554,-1.7524 -31.1033,-4.8626 -23.21182,-4.7038 -24.38707,-5.0581 -35.99527,-10.8506 -6.6,-3.2934 -14.892917,-7.0678 -18.428717,-8.3874 -4.90327,-1.8301 -8.27928,-4.1197 -14.22755,-9.6494 -4.28936,-3.9875 -8.39566,-7.25 -9.12511,-7.25 -0.72946,0 -2.87706,1.622 -4.77245,3.6045 -1.8954,1.9824 -7.62342,6.9818 -12.72895,11.1097 -8.307073,6.7163 -15.161263,13.8293 -14.106673,14.6394 0.2142,0.1645 2.07695,1.3139 4.13945,2.5543 3.96629,2.3853 4.36733,3.0748 2.73687,4.7052 -0.68416,0.6842 -0.65453,2.0418 0.0913,4.1812 1.00864,2.8933 0.69588,3.9174 -3.60746,11.812 -2.6847,4.9252 -5.50687,8.8519 -6.55977,9.1272 -1.74016,0.4551 -10.910896,14.7328 -10.910896,16.9869 0,0.5746 6.339106,4.5151 14.086906,8.7568 14.086913,7.7122 14.086913,7.7122 12,9.6565 -2.87492,2.6783 -3.03004,8.08711 -0.51655,18.01063 0.7863,3.10439 1.429643,5.97607 1.429643,6.38151 0,0.40544 -3.278993,0.52673 -7.286643,0.26954 -7.28664,-0.46763 -7.28664,-0.46763 -11.12094,8.61849 -2.10887,4.99737 -3.98687,9.53612 -4.17334,10.08612 -0.18648,0.55 2.98317,3.475 7.04366,6.5 6.30961,4.70056 7.47972,6.047 8.05013,9.26328 0.36707,2.0698 2.21602,5.61685 4.10877,7.88232 1.89275,2.26547 4.317993,5.23349 5.389423,6.59559 1.94806,2.47656 1.94806,2.47656 11.7185,-4.45719 5.37374,-3.81356 10.31751,-7.25457 10.98614,-7.64669 0.66864,-0.39212 2.91864,0.16043 5,1.2279 8.18401,4.19732 29.636587,25.79921 33.726417,33.96114 2.37398,4.7377 2.85612,5.17977 4.36253,4 0.93146,-0.72949 4.30483,-3.46385 7.49637,-6.07635 z M 312.32523,487.556 c 2.53341,0.008 5.25695,0.42703 6.05232,0.93023 0.88223,0.55816 2.14345,0.54171 3.23447,-0.0422 1.60955,-0.8614 1.08617,-2.07928 -5.23436,-12.18023 -13.53838,-21.63589 -17.0886,-32.13345 -18.54261,-54.8282 -0.67945,-10.6051 -0.67945,-10.6051 -11.79153,-11.2455 -21.09473,-1.2156 -20.93007,-1.2394 -24.22609,3.5033 -2.77289,3.9899 -2.94479,4.9216 -4.386,23.77077 -1.5,19.61808 -1.5,19.61808 1.55831,19.26027 3.05831,-0.35781 3.05831,-0.35781 9.38424,15.25327 4.6237,11.41035 7.11771,16.27733 9.26841,18.08703 3.55061,2.98764 4.7412,3.05115 9.70692,0.51783 3.83821,-1.9581 3.83821,-1.9581 7.66115,0.89235 3.82293,2.85045 3.82293,2.85045 8.26575,-0.54189 3.57861,-2.73247 5.33882,-3.38937 9.04902,-3.37704 z m 38.45601,-3.92139 c 2.65028,-2.41232 2.81,-2.97898 2.28129,-8.09392 -0.31269,-3.025 -1.27676,-7.86832 -2.14239,-10.76294 -1.41376,-4.72751 -2.25627,-5.73939 -8.28129,-9.94605 -6.70742,-4.68311 -6.70742,-4.68311 -6.70742,-30.409 0,-25.7258 0,-25.7258 -10.69123,-31.3465 -10.69122,-5.6208 -10.69122,-5.6208 -11.81848,-1.8281 -3.15704,10.6217 -1.72148,41.6034 2.65165,57.22693 2.69629,9.63281 10.60628,23.76655 21.38815,38.21679 3.46991,4.65049 3.46991,4.65049 6.96991,2.0936 1.925,-1.40629 4.78241,-3.72416 6.34981,-5.15081 z m 446.94207,-30.04986 c 20.2343,-10.42344 25.0746,-13.40359 37.762,-23.24995 8.004,-6.2118 17.4538,-14.3146 20.9995,-18.0064 6.4466,-6.7122 6.4466,-6.7122 16.8031,-7.6898 5.6961,-0.5377 10.4971,-1.1182 10.6689,-1.2899 0.1717,-0.1718 -2.5289,-9.9864 -6.0015,-21.8102 -6.3137,-21.4978 -6.3137,-21.4978 -23.0444,-53.4978 -9.2019,-17.6 -16.8879,-32.1762 -17.0801,-32.3916 -0.1921,-0.2154 -14.423,3.277 -31.6243,7.7609 -17.2013,4.4838 -31.6624,8.1476 -32.1357,8.1416 -0.4733,-0.01 -7.3042,-6.3597 -15.1799,-14.1192 -14.3192,-14.1084 -14.3192,-14.1084 -21.8629,-8.8934 -7.5438,5.215 -7.5438,5.215 -13.8202,0.7607 -6.2764,-4.4543 -6.2764,-4.4543 -11.6024,-1.0288 -2.9292,1.884 -5.8542,3.2118 -6.5,2.9507 -0.6457,-0.2611 -10.371,-7.2712 -21.6117,-15.5778 -11.2407,-8.3067 -20.9507,-15.1031 -21.5776,-15.1031 -2.322,0 -31.5248,27.4133 -47.98468,45.0444 -11.0606,11.8476 -20.3636,20.7659 -26.6275,25.5264 -9.6275,7.3167 -9.6275,7.3167 -10.3195,13.7791 -0.6921,6.4625 -0.6921,6.4625 11.232,27.3063 11.2392,19.6464 12.0884,21.5205 14.7828,32.6231 2.8585,11.7793 2.8585,11.7793 7.3954,11.1473 2.4952,-0.3476 8.36178,-1.4831 13.03678,-2.5233 8.5,-1.8912 8.5,-1.8912 13,3.3192 11.2713,13.0507 5.1585,10.3576 58.1211,25.60707 26.1916,7.54135 48.3344,14.30353 49.2062,15.02707 0.8718,0.72354 1.988,1.06651 2.4805,0.76214 0.4925,-0.30436 6.9247,1.19933 14.2938,3.34155 7.3691,2.14221 13.5295,3.92749 13.6898,3.96729 0.1602,0.0398 10.7355,-5.3078 23.5005,-11.88357 z M 408.03058,434.93269 c 6.05968,-4.32409 6.28046,-4.39199 14.28126,-4.39199 8.12642,0 8.12642,0 -4.5243,-16.25 -6.9579,-8.9375 -12.78318,-16.4113 -12.94507,-16.6083 -1.0292,-1.2529 -47.64486,35.4193 -48.77857,38.37368 -0.2852,0.7432 -3.96205,3.94307 -8.17078,7.11082 -7.65225,5.75954 -7.65225,5.75954 -4.80697,7.80954 1.5649,1.1275 4.39056,3.45388 6.27923,5.16975 3.43395,3.11976 3.43395,3.11976 27.97216,-6.85088 16.83419,-6.84025 26.47058,-11.34954 30.69304,-14.36262 z m -55.09915,-0.38585 c 4.62951,-4.94224 28.95551,-24.88894 39,-31.97894 4.95,-3.4941 9.38902,-6.6911 9.86449,-7.1045 0.80732,-0.702 -16.56469,-24.0503 -18.40472,-24.7362 -0.46255,-0.1725 -3.8225,2.0295 -7.46655,4.8932 -6.62554,5.2068 -6.62554,5.2068 -10.99195,0.9215 -4.36641,-4.2853 -4.36641,-4.2853 -9.07676,-0.8932 -3.95447,2.8477 -5.73048,5.354 -11.06743,15.6185 -6.35708,12.2265 -6.35708,12.2265 -6.35708,33.8084 0,21.58198 0,21.58198 5.75,17.12794 3.1625,-2.44972 7.1,-5.89524 8.75,-7.6567 z m 183,-6.96084 c 36.3,-5.6294 66.1801,-10.4101 66.4003,-10.6239 0.2202,-0.2138 -0.774,-5.3264 -2.2092,-11.3613 -2.4307,-10.2212 -3.4378,-12.4185 -14.7043,-32.0831 -12.0948,-21.1103 -12.0948,-21.1103 -11.4202,-27.9557 0.6745,-6.8453 0.6745,-6.8453 -2.3964,-8.4333 -1.689,-0.8734 -4.1679,-1.588 -5.5086,-1.588 -1.3408,0 -10.7006,-3.8458 -20.7997,-8.5462 -10.9499,-5.0965 -23.0822,-9.9085 -30.0556,-11.9209 -11.6937,-3.3747 -11.6937,-3.3747 -38.87221,-25.5316 -14.94816,-12.1863 -27.51236,-21.7844 -27.92044,-21.3291 -0.40809,0.4553 -6.49364,15.7865 -13.52345,34.0693 -12.78148,33.2415 -12.78148,33.2415 -10.15201,35.3099 2.48911,1.9579 2.54592,2.1958 1.06428,4.4571 -0.86085,1.3138 -10.07857,7.6208 -20.48383,14.0155 -10.40525,6.3946 -18.90726,11.9302 -18.89335,12.3013 0.0139,0.3711 10.18403,13.7247 22.60027,29.6747 12.41624,15.95 23.11492,29.7592 23.77484,30.6872 0.86668,1.2186 4.93481,2.2771 14.64974,3.8118 16.37835,2.58736 16.94986,2.74522 16.94986,4.68188 0,1.13472 0.73173,1.42019 2.75,1.07289 1.5125,-0.26026 32.45,-5.07907 68.75,-10.70847 z M 262.39547,407.2624 c 0.0198,-0.4281 7.91096,-0.471 17.53596,-0.095 17.5,0.683 17.5,0.683 17.51682,-2.2217 0.009,-1.5976 -0.5179,-13.0297 -1.17144,-25.4047 -1.07618,-20.3778 -1.02193,-23.4432 0.5752,-32.5 0.9699,-5.5 1.83455,-10.6697 1.92144,-11.4882 0.12186,-1.1479 -1.65961,-1.6708 -7.79172,-2.2871 -6.22271,-0.6254 -9.02676,-1.4616 -12.90769,-3.8496 -2.7269,-1.6779 -5.75361,-3.2039 -6.72603,-3.3912 -0.97241,-0.1872 -2.9404,-1.1086 -4.37331,-2.0475 -3.24662,-2.1273 -9.54899,-2.6303 -11.54327,-0.9213 -1.58483,1.3581 -15.57232,3.8672 -16.9189,3.035 -0.43434,-0.2684 -1.08232,-3.2877 -1.43997,-6.7095 -0.42116,-4.0294 -1.32304,-6.9471 -2.55973,-8.281 -1.05021,-1.1328 -2.68298,-4.7596 -3.62838,-8.0596 -1.06705,-3.7246 -3.17563,-7.7475 -5.56009,-10.6079 -3.33488,-4.0005 -4.61775,-4.7726 -9.73314,-5.8582 -3.2406,-0.6877 -6.48916,-1.6194 -7.21903,-2.0705 -2.33334,-1.4421 0.5986,-5.855 5.28375,-7.9526 4.22241,-1.8904 4.22241,-1.8904 1.49895,-2.9259 -1.83086,-0.696 -2.72346,-1.7598 -2.72346,-3.2457 0,-1.2157 -0.82412,-3.1393 -1.83137,-4.2748 -2.81331,-3.1713 -6.16863,-13.2043 -6.16863,-18.4452 0,-4.2529 -0.4306,-5.1254 -4.501,-9.1202 -3.12283,-3.0648 -4.32696,-4.9657 -3.93261,-6.2082 0.36422,-1.1475 0.058,-1.7908 -0.85252,-1.7908 -0.8036,0 -4.60529,-5.9736 -8.75066,-13.75 -5.30034,-9.943 -9.03104,-15.5497 -13.47435,-20.25 -8.17973,-8.6529 -10.10977,-11.647 -10.95831,-17 -0.63597,-4.012 -1.85728,-5.6557 -11.26156,-15.1564 -10.54822,-10.6564 -10.54822,-10.6564 -14.37943,-9.3046 -3.71059,1.3091 -3.89221,1.266 -5.76885,-1.3695 -1.3043,-1.8317 -5.48132,-4.257 -12.77918,-7.4199 -10.84153,-4.6988 -10.84153,-4.6988 -39.841527,-8.1927 -15.95,-1.9217 -30.3749,-3.6906 -32.055343,-3.931 -2.45589,-0.3512 -3.40718,0.084 -4.84859,2.2186 -2.70931,4.0121 -9.11857,8.5321 -21.711926,15.312 -6.26128,3.3709 -11.5222599,6.2403 -11.6910599,6.3765 -0.16881,0.1361 6.2436899,15.7723 14.2499999,34.747 13.802086,32.7105 14.552156,34.8293 14.465086,40.8597 -0.0918,6.3603 -0.0918,6.3603 -10.62639,16.1103 -7.099906,6.5711 -11.299716,9.75 -12.881416,9.75 -2.9644299,0 -11.4109499,4.0486 -11.3685599,5.4493 0.0175,0.5779 0.65771,1.8766 1.42271,2.8861 1.27843,1.687 2.09916,1.7488 10.1490099,0.7642 4.81695,-0.5892 8.85905,-0.9652 8.98245,-0.8355 0.1234,0.1298 -0.48191,3.8359 -1.34514,8.2359 -1.77287,9.0366 -2.35887,51.5791 -0.91684,66.5606 0.824,8.5606 0.824,8.5606 6.218806,11.7874 5.39482,3.2268 5.39482,3.2268 9.17601,-0.9666 2.07965,-2.3064 7.38119,-7.1011 11.78119,-10.6549 4.400003,-3.5537 9.453983,-8.1576 11.231063,-10.2308 5.94553,-6.9361 9.56439,-6.35 19.39233,3.141 4.95157,4.7818 8.17825,6.9583 12.98291,8.7575 3.51653,1.3169 11.568697,4.9985 17.893697,8.1814 6.325,3.1829 13.33036,6.2632 15.56746,6.8451 13.6224,3.5436 45.06473,9.2411 52.06397,9.4343 8.13142,0.2244 8.13142,0.2244 24.34118,15.4347 15.55007,14.5913 16.37902,15.2099 20.36858,15.2015 2.28734,-0.01 9.38707,1.2326 15.77717,2.75 10.99024,2.6096 11.76243,2.9591 14.28315,6.4647 1.56892,2.1819 3.22642,3.4904 4.03049,3.1818 0.75113,-0.2882 1.69292,0 2.09286,0.6525 0.49303,0.7978 1.47992,0.2563 3.06518,-1.6818 1.28592,-1.5721 2.35422,-3.2087 2.374,-3.6367 z m 81.45613,-20.9717 c 4.76362,-8.8311 6.29115,-10.7755 11.03434,-14.0459 6.10977,-4.2128 6.8956,-4.1353 11.95211,1.178 2.90662,3.0543 2.90662,3.0543 9.15215,-1.8539 3.43504,-2.6995 14.50206,-9.9531 24.59338,-16.1191 10.09132,-6.166 19.22423,-12.0319 20.29537,-13.0353 1.92861,-1.8067 1.92723,-1.8465 -0.14226,-4.0991 -2.08977,-2.2747 -2.08977,-2.2747 11.68199,-37.7747 13.77176,-35.5 13.77176,-35.5 11.0628,-38.5 -1.48993,-1.65 -9.64821,-10.6561 -18.12951,-20.0136 -8.55026,-9.4335 -18.26396,-21.3514 -21.80267,-26.75 -6.11365,-9.3268 -8.11787,-11.3844 -8.11787,-8.3339 0,2.1528 -13.19609,27.6142 -17.59639,33.9517 -2.988,4.3034 -4.49645,5.6249 -6.4311,5.6339 -5.10903,0.024 -8.70768,4.6549 -13.94744,17.9483 -1.56034,3.9586 -1.66537,4.8628 -0.51354,4.4208 0.7964,-0.3056 2.39381,-2.086 3.54979,-3.9564 1.61353,-2.6108 2.77979,-3.4008 5.02024,-3.4008 2.40196,0 2.91844,0.4186 2.91844,2.3651 0,3.414 -3.51132,7.3702 -7.26219,8.1825 -1.78079,0.3856 -4.43669,1.5483 -5.90198,2.5837 -4.96807,3.5107 -6.79088,9.08 -13.86723,42.3687 -3.5014,16.4714 -6.63256,25.631 -14.60863,42.7348 -12.97655,27.8267 -12.96971,23.7283 -0.0512,30.6726 6.15518,3.3086 11.27924,6.033 11.3868,6.0542 0.10757,0.021 2.68364,-4.5741 5.7246,-10.2116 z m -31.36435,-17.8612 c 6.70727,-13.3658 13.24929,-29.4651 16.44496,-40.4694 2.30196,-7.9268 6.92965,-34.3223 6.15351,-35.0984 -0.50669,-0.5067 -10.81929,14.5104 -16.90904,24.6229 -10.80167,17.9368 -15.45343,32.6988 -14.31914,45.4407 0.59206,6.6507 2.41966,15.6154 3.18349,15.6154 0.20469,0 2.65549,-4.5501 5.44622,-10.1112 z M 16.913584,353.5593 c 2.85633,-2.9813 2.85633,-2.9813 -1.72298,-5.007 -7.9084099,-3.4983 -10.1647599,-3.5827 -12.6114999,-0.4722 -1.18122,1.5017 -2.14767004,3.033 -2.14767004,3.4029 0,0.5307 10.61484994,4.5658 13.06290994,4.9657 0.3096,0.051 1.84826,-1.2496 3.41924,-2.8894 z M 584.77693,329.2907 c 4.717,-3.5626 16.6139,-15.0117 27.6679,-26.6266 17.30138,-18.1793 45.81578,-45.1234 47.75328,-45.1234 0.4033,-1e-4 1.9561,-1.5325 3.4506,-3.4056 2.7172,-3.4055 2.7172,-3.4055 -22,-25.1629 -13.5945,-11.9667 -24.86828,-22.1371 -25.05278,-22.6009 -0.1845,-0.4639 5.10298,-6.5329 11.74998,-13.4867 6.647,-6.9538 12.0585,-12.9134 12.0255,-13.2436 -0.033,-0.3302 -8.4705,-7.8785 -18.75,-16.774 -18.68998,-16.1738 -18.68998,-16.1738 -22.18998,-14.058 -1.925,1.1636 -4.2843,2.5855 -5.243,3.1598 -1.4572,0.873 -3.2196,-0.4256 -10.75,-7.9211 -4.9538,-4.9309 -9.007,-9.2359 -9.007,-9.5666 0,-0.3308 5.3804,-7.7652 11.9564,-16.5209 11.9564,-15.9195 11.9564,-15.9195 8.6596,-19.243299 -2.3165,-2.3353 -4.5335,-3.4896 -7.4556,-3.8815 -3.761,-0.5045 -5.1394,-1.622 -14.4096,-11.6828 -15.5887,-16.918095 -14.5304,-15.377495 -11.8519,-17.253695 2.4165,-1.6925 2.354,-3.4237 -0.3574,-9.9132 -1.3228,-3.1658 -1.3228,-3.1658 -8.3043,-0.8243 -10.3388,3.4676 -19.4156,4.0463 -26.3738,1.6818 -5.6366,-1.9155 -5.6366,-1.9155 -8.25,3.4131 -2.4201,4.9346 -2.6134,6.3132 -2.6134,18.639695 0,13.311 0,13.311 -6.9675,36.536299 -3.8321,12.774 -13.9742,51.5757 -22.5379,86.226 -8.56372,34.6504 -16.45334,65.2407 -17.5325,67.9785 -1.07915,2.7379 -1.9621,5.6062 -1.9621,6.3741 0,0.768 8.75442,8.5262 19.4543,17.2405 19.4542,15.8443 19.4542,15.8443 30.5058,19.0552 6.0784,1.766 19.4251,7.0411 29.6594,11.7225 10.2342,4.6814 19.7941,8.5275 21.2441,8.547 1.45,0.019 3.7614,0.6786 5.1364,1.4646 1.375,0.786 2.8533,1.4451 3.2851,1.4646 0.4318,0.019 4.5089,-2.7771 9.0604,-6.2146 z m -279.59437,-6.75 c 6.31595,-12.339 8.20995,-22.7587 8.27062,-45.5 0.0514,-19.2578 1.43981,-30.2337 4.77959,-37.7838 5.02589,-11.3619 16.47792,-24.4559 30.76417,-35.1752 4.36397,-3.2744 8.27613,-6.2247 8.6937,-6.5564 0.84289,-0.6695 4.5452,-24.644 7.71898,-49.9846 8.2993,-66.264699 15.10878,-100.463694 24.35035,-122.293894 1.21016,-2.8587 1.30601,-3.8968 0.38879,-4.2112 -7.37494,-2.5279 -18.92045,-4.4949 -26.38394,-4.4951 -4.85837,-10e-5 -14.45839,-0.9337 -21.33339,-2.0746 -14.09243,-2.3387 -24.6873,-2.512 -40,-0.6542 -10.31452,1.2514 -10.79533,1.4288 -27.21794,10.0422 -16.71795,8.7683 -16.71795,8.7683 -8.30813,25.4775 4.6254,9.1901 9.80269,20.8756 11.50509,25.9677 2.78421,8.327895 5.94267,25.653194 4.87187,26.723994 -0.23283,0.2329 -2.65703,-0.6759 -5.38711,-2.0194 -7.23227,-3.559199 -14.42097,-4.662599 -22.34279,-3.429599 -8.47524,1.3193 -13.53307,2.9507 -30.12099,9.715499 -15.59833,6.3612 -26.62011,10.2511 -29.04619,10.2511 -0.93273,0 -5.12632,-2.7383 -9.31908,-6.0851 -7.6232,-6.0851 -7.6232,-6.0851 -10.997,-4 -1.85559,1.1468 -4.01144,2.0851 -4.79079,2.0851 -0.77934,0 -6.57623,-3.8219 -12.88196,-8.4931 -6.30574,-4.671199 -11.68998,-8.490599 -11.96498,-8.487599 -0.275,0 -1.45576,1.482 -2.62391,3.2867 -2.1239,3.2812 -2.1239,3.2812 4.26852,10.553099 3.76356,4.2814 6.10425,7.7591 5.69167,8.4564 -0.38542,0.6515 -5.61408,8.8248 -11.61925,18.163 -8.36337,13.0053 -10.68702,17.3346 -9.92937,18.5 1.05022,1.6155 2.05016,1.696 6.49377,0.5231 2.5492,-0.6729 3.69395,0.165 13.71108,10.0361 10.32145,10.171 10.99374,11.0818 12.08149,16.3663 1.28934,6.264 5.90284,13.322 11.7321,17.9486 2.61627,2.0764 5.97863,7.1933 11.52552,17.5395 6.13755,11.448 8.27114,14.6079 9.8635,14.6079 1.68374,0 1.95728,0.5083 1.59648,2.9666 -0.36098,2.4595 0.30331,3.6915 3.8865,7.2082 3.85845,3.7868 4.3219,4.7363 4.3219,8.8553 0,5.6556 2.46988,13.3934 5.63484,17.6532 1.30084,1.7508 2.36516,3.647 2.36516,4.2139 0,0.5668 1.90869,2.811 4.24152,4.987 4.19499,3.913 4.21419,3.9621 1.75,4.4734 -6.24159,1.2949 -7.58719,1.6891 -8.99152,2.6336 -2.02078,1.3591 -0.40558,2.3618 6.3308,3.9303 4.30797,1.003 5.82702,2.0077 9.11749,6.0305 2.52835,3.0911 4.5807,7.0697 5.70679,11.0631 0.96718,3.4298 2.61166,6.8336 3.6544,7.564 1.36024,0.9528 2.07944,3.084 2.54554,7.5434 0.3573,3.4185 0.7888,6.3547 0.95889,6.5247 0.17008,0.1701 2.89352,-0.1113 6.05209,-0.6254 3.99632,-0.6504 6.29883,-1.6213 7.57096,-3.1923 1.60725,-1.9849 2.1443,-2.1135 4.44557,-1.065 2.20105,1.0029 2.61747,0.9497 2.61747,-0.334 0,-1.1398 1.12234,-0.7544 4.43018,1.5215 2.43659,1.6764 4.96523,3.048 5.61918,3.048 0.65396,0 3.82472,1.6011 7.04613,3.558 4.11175,2.4978 7.72663,3.8061 12.13082,4.3905 9.9611,1.3217 9.70914,1.4596 14.52482,-7.9485 z m 19.97023,-54.5 c 3.17313,-9.4623 4.00477,-7.8503 1.91733,3.7163 -0.82223,4.556 -1.75603,10.7587 -2.07511,13.7837 -0.58013,5.5 -0.58013,5.5 5.98255,-8 13.90703,-28.608 19.79,-46.9972 19.24719,-60.1635 -0.29332,-7.1146 -0.29332,-7.1146 -6.29332,-2.3132 -7.37887,5.9048 -15.13888,14.8523 -18.33446,21.1402 -4.46499,8.7856 -9.16264,40.5045 -7.57088,51.1192 0.7057,4.7059 0.7057,4.7059 2.57482,-3.2884 1.02801,-4.3969 3.07636,-11.5943 4.55188,-15.9943 z m 141.03772,-1 c 1.14548,-3.3 8.90192,-33.675 17.23652,-67.5 8.3346,-33.825 18.2702,-71.9268 22.0791,-84.6707 6.9253,-23.170699 6.9253,-23.170699 6.9253,-36.778499 0,-13.034995 0.1224,-13.850195 2.9063,-19.365195 2.9063,-5.7573 2.9063,-5.7573 -2.75,-9.3721 -3.111,-1.9881 -10.3813,-5.8419 -16.1563,-8.5639 -10.8982,-5.1368 -18.91505,-11.2509 -21.62583,-16.4929 -0.85733,-1.6579 -1.58878,-4.9991 -1.62545,-7.4248 -0.0367,-2.4257 -0.35123,-4.5862 -0.69902,-4.8012 -0.34779,-0.2149 -3.60977,-1.5115 -7.24885,-2.8812004 -6.61651,-2.4905 -6.61651,-2.4905 -26.54965,23.1800004 -35.72699,46.010295 -38.06071,49.478595 -43.5142,64.670495 -6.59839,18.381199 -10.40335,41.349399 -16.0472,96.866999 -0.14495,1.4259 1.16427,2.3562 5.54014,3.9368 3.15147,1.1383 5.94853,1.8511 6.21569,1.5839 0.26716,-0.2672 0.79367,-4.8663 1.17003,-10.2204 0.37635,-5.354 1.13505,-10.0132 1.68601,-10.3537 2.95611,-1.827 5.169,8.4706 3.84571,17.8958 -0.60231,4.2899 -0.4862,5.8303 0.46704,6.1961 0.69774,0.2678 4.39175,5.1236 8.2089,10.7907 12.19673,18.1078 54.84053,62.8524 57.22475,60.0439 0.34557,-0.4071 1.56552,-3.4401 2.71101,-6.7401 z m -84.02727,-48.2372 c 3.99658,-7.0195 7.26689,-13.4867 7.26735,-14.3715 0.001,-2.0297 -10.91923,-6.3432 -11.52028,-4.5505 -0.21373,0.6376 -1.28062,4.9842 -2.37084,9.6592 -1.09023,4.675 -3.81054,14.0063 -6.04513,20.7362 -2.2346,6.7299 -4.06291,12.5607 -4.06291,12.9574 0,1.9156 10.26563,-13.0736 16.73181,-24.4308 z"
       id="path847" />
    <path
       style="fill:#ff0000;stroke-width:0.259515"
       d="m 426.3306,168.72869 c -7.25602,-0.83621 -12.26486,-3.57399 -12.98459,-7.09725 -0.24569,-1.20261 -0.21408,-1.51662 0.26346,-2.61812 0.29843,-0.68838 0.7971,-1.53452 1.10814,-1.88029 1.44057,-1.60149 5.67317,-3.69308 7.63495,-3.7729 0.65693,-0.0267 0.93858,-0.1594 0.94028,-0.44294 10e-4,-0.22263 -1.50893,-2.41014 -3.35615,-4.86113 -4.51309,-5.98817 -8.84269,-12.65481 -10.56299,-16.26467 -0.77701,-1.63047 -1.41274,-3.08546 -1.41274,-3.23331 0,-0.44104 -0.57658,-1.59554 -0.74409,-1.48991 -0.0853,0.0538 -0.16982,-0.21531 -0.18779,-0.59803 -0.018,-0.38272 -0.18193,-1.75751 -0.36438,-3.0551 -0.2886,-2.05269 -0.27503,-2.76076 0.10454,-5.44933 0.23992,-1.69955 0.67016,-3.70491 0.95612,-4.45635 0.89305,-2.34677 1.85844,-4.38086 2.07918,-4.38086 0.11648,0 0.21182,-0.12692 0.21182,-0.28205 0,-0.15513 0.5059,-0.95137 1.12424,-1.76944 3.15654,-4.17608 7.57436,-7.139106 12.62087,-8.464806 3.28063,-0.86182 8.82168,-0.85531 11.81824,0.0139 2.24426,0.65096 5.34493,2.023856 6.55277,2.901396 0.42122,0.30604 0.90015,0.47178 1.06425,0.3683 0.17754,-0.11196 0.22929,-0.0741 0.12777,0.0935 -0.20157,0.33278 1.07303,1.43204 1.41236,1.21806 0.12821,-0.0808 0.20143,-0.0497 0.16272,0.0691 -0.0387,0.11885 0.29074,0.60145 0.73211,1.07245 0.56038,0.59802 0.94785,0.80803 1.28436,0.69615 0.37397,-0.12433 0.40038,-0.10113 0.11794,0.10361 -0.29738,0.21553 -0.1761,0.49592 0.66257,1.53202 3.23182,3.99254 4.96699,9.00761 4.96789,14.35839 0,5.90983 -3.07644,11.82344 -13.54783,26.03371 -2.5765,3.49642 -4.61302,6.35713 -4.52565,6.35713 0.0874,0 -0.14577,0.24448 -0.51809,0.5433 -0.37232,0.29882 -0.67695,0.64227 -0.67695,0.76322 0,0.468 0.7421,0.0725 1.5947,-0.84987 0.89152,-0.96449 0.89152,-0.96449 2.79566,-0.42627 2.46152,0.69576 5.43265,2.41552 6.69084,3.87279 1.95835,2.26828 1.8851,4.84531 -0.19816,6.9709 -1.0491,1.07041 -4.84204,3.28141 -5.62923,3.28141 -0.1864,0 -0.66436,0.13464 -1.06215,0.29921 -0.87304,0.36119 -0.87742,0.36199 -3.93474,0.7181 -2.2997,0.26787 -5.59856,0.32463 -7.32216,0.126 z m 4.1078,-8.95555 c -0.0659,-0.18771 -0.0235,-0.28071 0.0938,-0.20666 0.17819,0.11236 3.37746,-4.06019 3.37746,-4.40495 0,-0.0618 -0.17683,-0.0859 -0.39297,-0.0536 -0.54602,0.0818 -3.78296,4.55561 -3.5611,4.92187 0.1049,0.17322 0.0654,0.22459 -0.0949,0.12346 -0.15108,-0.0953 -0.3207,-0.0323 -0.37694,0.13983 -0.0746,0.22818 -0.25417,0.20449 -0.66262,-0.0874 -0.30819,-0.22025 -0.50873,-0.45309 -0.44567,-0.51744 0.19594,-0.19993 -3.20005,-4.71706 -3.43494,-4.56894 -0.122,0.0769 -0.20599,-0.0653 -0.18661,-0.31603 0.0201,-0.26039 -0.11598,-0.42322 -0.31744,-0.37967 -0.2287,0.0495 -0.29747,-0.0705 -0.19563,-0.34128 0.0909,-0.24174 0.0501,-0.35011 -0.097,-0.25739 -0.13967,0.0881 -0.25397,-0.0168 -0.25397,-0.23306 0,-0.21626 -0.0997,-0.45606 -0.22152,-0.53289 -0.39781,-0.25086 -0.17146,0.74556 0.35221,1.5504 0.83944,1.29018 1.23122,1.68619 1.50031,1.51651 0.1502,-0.0947 0.18742,0.0184 0.0906,0.27557 -0.10124,0.2692 -0.0359,0.4362 0.17044,0.4362 0.18397,0 0.3345,0.15803 0.3345,0.35117 0,0.19314 0.68404,1.31689 1.5201,2.49722 1.52009,2.14607 1.52009,2.14607 2.22079,1.28721 0.38538,-0.47238 0.64684,-1.01244 0.581,-1.20015 z m 2.51595,-26.55149 c 1.81348,-0.62189 4.11831,-2.26926 3.91844,-2.8007 -0.0721,-0.19173 -0.0323,-0.28628 0.0886,-0.2101 0.37609,0.23715 1.08335,-0.78472 0.91257,-1.31852 -0.11745,-0.36718 -0.0939,-0.40394 0.0902,-0.141 0.30488,0.43542 0.69877,-0.0624 0.41718,-0.52723 -0.10868,-0.1794 -0.071,-0.23179 0.0926,-0.12865 0.31263,0.19714 0.95537,-1.51082 0.71676,-1.90471 -0.083,-0.13704 -0.0401,-0.31904 0.0954,-0.40445 0.8127,-0.51247 0.48674,-4.49668 -0.54594,-6.67327 -0.75616,-1.59376 -3.11777,-4.07839 -3.67069,-3.8619 -0.22854,0.0895 -0.35053,0.0554 -0.27106,-0.0758 0.0794,-0.13119 -0.5215,-0.5722 -1.33548,-0.98002 -1.29318,-0.64792 -1.77176,-0.74122 -3.79222,-0.73934 -2.5612,0.002 -4.1588,0.53429 -6.22485,2.07247 -1.35917,1.01192 -3.10429,3.489 -3.56975,5.06703 -0.56207,1.90557 -0.45494,4.67408 0.25148,6.49905 0.33283,0.85983 0.73331,1.53525 0.88997,1.50094 0.15666,-0.0343 0.21927,0.11191 0.13915,0.32494 -0.24465,0.65047 2.90828,3.62644 4.27486,4.03495 0.63586,0.19007 1.38735,0.44305 1.66996,0.56215 1.02482,0.43191 4.19862,0.2715 5.85299,-0.29582 z m -6.54346,-0.41762 c 0.18546,-0.0757 0.40706,-0.0664 0.49243,0.0207 0.0854,0.0871 -0.0664,0.14906 -0.33721,0.13768 -0.2993,-0.0126 -0.36017,-0.0747 -0.15522,-0.15838 z"
       id="path900" />
  </g>
</svg>
